<svg id="visual" viewBox="0 0 900 600" width="900" height="600" xmlns="http://www.w3.org/2000/svg" xmlns:xlink="http://www.w3.org/1999/xlink" version="1.1"><rect x="0" y="0" width="900" height="600" fill="#001220"></rect><path d="M0 447L21.5 444.3C43 441.7 86 436.3 128.8 431.2C171.7 426 214.3 421 257.2 420C300 419 343 422 385.8 420.8C428.7 419.7 471.3 414.3 514.2 408.2C557 402 600 395 642.8 395.7C685.7 396.3 728.3 404.7 771.2 414C814 423.3 857 433.7 878.5 438.8L900 444L900 601L878.5 601C857 601 814 601 771.2 601C728.3 601 685.7 601 642.8 601C600 601 557 601 514.2 601C471.3 601 428.7 601 385.8 601C343 601 300 601 257.2 601C214.3 601 171.7 601 128.8 601C86 601 43 601 21.5 601L0 601Z" fill="#270a3a"></path><path d="M0 401L21.5 405.8C43 410.7 86 420.3 128.8 426.7C171.7 433 214.3 436 257.2 439.8C300 443.7 343 448.3 385.8 446.3C428.7 444.3 471.3 435.7 514.2 430.2C557 424.7 600 422.3 642.8 424.7C685.7 427 728.3 434 771.2 431.2C814 428.3 857 415.7 878.5 409.3L900 403L900 601L878.5 601C857 601 814 601 771.2 601C728.3 601 685.7 601 642.8 601C600 601 557 601 514.2 601C471.3 601 428.7 601 385.8 601C343 601 300 601 257.2 601C214.3 601 171.7 601 128.8 601C86 601 43 601 21.5 601L0 601Z" fill="#340d4e"></path><path d="M0 452L21.5 452.8C43 453.7 86 455.3 128.8 462.2C171.7 469 214.3 481 257.2 480.8C300 480.7 343 468.3 385.8 464.7C428.7 461 471.3 466 514.2 472.3C557 478.7 600 486.3 642.8 492.2C685.7 498 728.3 502 771.2 495.2C814 488.3 857 470.7 878.5 461.8L900 453L900 601L878.5 601C857 601 814 601 771.2 601C728.3 601 685.7 601 642.8 601C600 601 557 601 514.2 601C471.3 601 428.7 601 385.8 601C343 601 300 601 257.2 601C214.3 601 171.7 601 128.8 601C86 601 43 601 21.5 601L0 601Z" fill="#421062"></path><path d="M0 487L21.5 490C43 493 86 499 128.8 506C171.7 513 214.3 521 257.2 520.3C300 519.7 343 510.3 385.8 508.8C428.7 507.3 471.3 513.7 514.2 516.5C557 519.3 600 518.7 642.8 513.7C685.7 508.7 728.3 499.3 771.2 497C814 494.7 857 499.3 878.5 501.7L900 504L900 601L878.5 601C857 601 814 601 771.2 601C728.3 601 685.7 601 642.8 601C600 601 557 601 514.2 601C471.3 601 428.7 601 385.8 601C343 601 300 601 257.2 601C214.3 601 171.7 601 128.8 601C86 601 43 601 21.5 601L0 601Z" fill="#501378"></path><path d="M0 563L21.5 557.7C43 552.3 86 541.7 128.8 539.2C171.7 536.7 214.3 542.3 257.2 545.3C300 548.3 343 548.7 385.8 545.3C428.7 542 471.3 535 514.2 538.5C557 542 600 556 642.8 562.3C685.7 568.7 728.3 567.3 771.2 559.7C814 552 857 538 878.5 531L900 524L900 601L878.5 601C857 601 814 601 771.2 601C728.3 601 685.7 601 642.8 601C600 601 557 601 514.2 601C471.3 601 428.7 601 385.8 601C343 601 300 601 257.2 601C214.3 601 171.7 601 128.8 601C86 601 43 601 21.5 601L0 601Z" fill="#5f168e"></path></svg>